<svg
    width="1em"
    height="1em"
    viewBox="0 0 84 59"
    fill="none"
    xmlns="http://www.w3.org/2000/svg"
  >
    <mask id="path-1-inside-1_101_13" fill="white">
      <path d="M2 5C2 2.23858 4.23858 0 7 0H77C79.7614 0 82 2.23858 82 5V48H2V5Z" />
    </mask>
    <path
      d="M2 5C2 2.23858 4.23858 0 7 0H77C79.7614 0 82 2.23858 82 5V48H2V5Z"
      fill="white"
      stroke="#031b53"
      strokeWidth="16"
      mask="url(#path-1-inside-1_101_13)"
    />
    <mask id="path-2-inside-2_101_13" fill="white">
      <path d="M0 48C0 47.4477 0.447715 47 1 47H83C83.5523 47 84 47.4477 84 48V53C84 56.3137 81.3137 59 78 59H6C2.68629 59 0 56.3137 0 53V48Z" />
    </mask>
    <path
      d="M0 48C0 47.4477 0.447715 47 1 47H83C83.5523 47 84 47.4477 84 48V53C84 56.3137 81.3137 59 78 59H6C2.68629 59 0 56.3137 0 53V48Z"
      fill="white"
      stroke="#031b53"
      strokeWidth="4"
      mask="url(#path-2-inside-2_101_13)"
    />
    <path
      d="M29 49H55V49C55 51.2091 53.2091 53 51 53H33C30.7909 53 29 51.2091 29 49V49Z"
      fill="#031b53"
    />
    <circle cx= "41"cy="24" r="14" fill="#031b53" />
    <path
      d="M32.2102 23.9318V23.25L37.6989 20.4545V21.5455L33.4886 23.5739L33.5227 23.5057V23.6761L33.4886 23.608L37.6989 25.6364V26.7273L32.2102 23.9318ZM42.9158 17.8636L40.1033 28.3125H39.1829L41.9954 17.8636H42.9158ZM49.8864 23.9318L44.3977 26.7273V25.6364L48.608 23.608L48.5739 23.6761V23.5057L48.608 23.5739L44.3977 21.5455V20.4545L49.8864 23.25V23.9318Z"
      fill="white"
    />
    <path
      d="M32.2102 23.9318V23.25L37.6989 20.4545V21.5455L33.4886 23.5739L33.5227 23.5057V23.6761L33.4886 23.608L37.6989 25.6364V26.7273L32.2102 23.9318ZM42.9158 17.8636L40.1033 28.3125H39.1829L41.9954 17.8636H42.9158ZM49.8864 23.9318L44.3977 26.7273V25.6364L48.608 23.608L48.5739 23.6761V23.5057L48.608 23.5739L44.3977 21.5455V20.4545L49.8864 23.25V23.9318Z"
      fill="white"
    />
    <path
      d="M32.2102 23.9318H31.9102V24.1157L32.0741 24.1991L32.2102 23.9318ZM32.2102 23.25L32.0741 22.9827L31.9102 23.0661V23.25H32.2102ZM37.6989 20.4545H37.9989V19.9651L37.5627 20.1872L37.6989 20.4545ZM37.6989 21.5455L37.8291 21.8157L37.9989 21.7339V21.5455H37.6989ZM33.4886 23.5739L33.2203 23.4397L32.8275 24.2254L33.6188 23.8441L33.4886 23.5739ZM33.5227 23.5057H33.8227L33.2544 23.3715L33.5227 23.5057ZM33.5227 23.6761L33.2544 23.8103L33.8227 23.6761H33.5227ZM33.4886 23.608L33.6188 23.3377L32.8275 22.9564L33.2203 23.7421L33.4886 23.608ZM37.6989 25.6364H37.9989V25.4479L37.8291 25.3661L37.6989 25.6364ZM37.6989 26.7273L37.5627 26.9946L37.9989 27.2167V26.7273H37.6989ZM32.5102 23.9318V23.25H31.9102V23.9318H32.5102ZM32.3464 23.5173L37.835 20.7219L37.5627 20.1872L32.0741 22.9827L32.3464 23.5173ZM37.3989 20.4545V21.5455H37.9989V20.4545H37.3989ZM37.5687 21.2752L33.3584 23.3036L33.6188 23.8441L37.8291 21.8157L37.5687 21.2752ZM33.757 23.708L33.7911 23.6398L33.2544 23.3715L33.2203 23.4397L33.757 23.708ZM33.2227 23.5057V23.6761H33.8227V23.5057H33.2227ZM33.7911 23.542L33.757 23.4738L33.2203 23.7421L33.2544 23.8103L33.7911 23.542ZM33.3584 23.8782L37.5687 25.9066L37.8291 25.3661L33.6188 23.3377L33.3584 23.8782ZM37.3989 25.6364V26.7273H37.9989V25.6364H37.3989ZM37.835 26.4599L32.3464 23.6645L32.0741 24.1991L37.5627 26.9946L37.835 26.4599ZM42.9158 17.8636L43.2055 17.9416L43.3073 17.5636H42.9158V17.8636ZM40.1033 28.3125V28.6125H40.3333L40.393 28.3905L40.1033 28.3125ZM39.1829 28.3125L38.8932 28.2345L38.7915 28.6125H39.1829V28.3125ZM41.9954 17.8636V17.5636H41.7655L41.7057 17.7857L41.9954 17.8636ZM42.6261 17.7857L39.8136 28.2345L40.393 28.3905L43.2055 17.9416L42.6261 17.7857ZM40.1033 28.0125H39.1829V28.6125H40.1033V28.0125ZM39.4726 28.3905L42.2851 17.9416L41.7057 17.7857L38.8932 28.2345L39.4726 28.3905ZM41.9954 18.1636H42.9158V17.5636H41.9954V18.1636ZM49.8864 23.9318L50.0225 24.1991L50.1864 24.1157V23.9318H49.8864ZM44.3977 26.7273H44.0977V27.2167L44.5339 26.9946L44.3977 26.7273ZM44.3977 25.6364L44.2675 25.3661L44.0977 25.4479V25.6364H44.3977ZM48.608 23.608L48.8763 23.7421L49.2691 22.9564L48.4777 23.3377L48.608 23.608ZM48.5739 23.6761H48.2739L48.8422 23.8103L48.5739 23.6761ZM48.5739 23.5057L48.8422 23.3715L48.2739 23.5057H48.5739ZM48.608 23.5739L48.4777 23.8441L49.2691 24.2254L48.8763 23.4397L48.608 23.5739ZM44.3977 21.5455H44.0977V21.7339L44.2675 21.8157L44.3977 21.5455ZM44.3977 20.4545L44.5339 20.1872L44.0977 19.9651V20.4545H44.3977ZM49.8864 23.25H50.1864V23.0661L50.0225 22.9827L49.8864 23.25ZM49.7502 23.6645L44.2616 26.4599L44.5339 26.9946L50.0225 24.1991L49.7502 23.6645ZM44.6977 26.7273V25.6364H44.0977V26.7273H44.6977ZM44.5279 25.9066L48.7382 23.8782L48.4777 23.3377L44.2675 25.3661L44.5279 25.9066ZM48.3396 23.4738L48.3055 23.542L48.8422 23.8103L48.8763 23.7421L48.3396 23.4738ZM48.8739 23.6761V23.5057H48.2739V23.6761H48.8739ZM48.3055 23.6398L48.3396 23.708L48.8763 23.4397L48.8422 23.3715L48.3055 23.6398ZM48.7382 23.3036L44.5279 21.2752L44.2675 21.8157L48.4777 23.8441L48.7382 23.3036ZM44.6977 21.5455V20.4545H44.0977V21.5455H44.6977ZM44.2616 20.7219L49.7502 23.5173L50.0225 22.9827L44.5339 20.1872L44.2616 20.7219ZM49.5864 23.25V23.9318H50.1864V23.25H49.5864Z"
      fill="white"
    />
  </svg>